<?xml version="1.0" encoding="UTF-8"?> <svg xmlns="http://www.w3.org/2000/svg" version="1.1" viewBox="0 0 512 512"><defs><style> .cls-1 { font-family: Baskerville-BoldItalic, Baskerville; font-size: 290.56px; font-weight: 700; } .cls-1, .cls-2, .cls-3 { fill: #fff; } .cls-1, .cls-3 { font-style: italic; } .cls-3 { font-family: Baskerville-SemiBoldItalic, Baskerville; font-size: 59.59px; font-weight: 600; } .cls-4 { fill: none; stroke: #fff; stroke-miterlimit: 10; stroke-width: 1.46px; } .cls-5 { fill: #1b3460; } </style></defs><g><g id="Layer_1"><path class="cls-5" d="M198.96,402.09c-12.89,0-25.77-1.31-38.28-3.9-12.2-2.52-24.19-6.28-35.65-11.18-11.25-4.81-22.11-10.76-32.26-17.69-10.06-6.86-19.51-14.74-28.11-23.42-8.59-8.68-16.4-18.23-23.19-28.39-6.86-10.26-12.75-21.22-17.51-32.59-4.85-11.58-8.57-23.69-11.07-36.01-2.56-12.64-3.86-25.65-3.86-38.66s1.3-26.03,3.86-38.67c2.5-12.32,6.22-24.44,11.07-36.02,4.76-11.37,10.65-22.33,17.51-32.59,6.79-10.16,14.6-19.71,23.19-28.39,8.59-8.68,18.05-16.56,28.11-23.43,10.15-6.93,21.01-12.88,32.26-17.69,11.46-4.9,23.46-8.66,35.65-11.18,12.51-2.59,25.39-3.9,38.28-3.9s25.77,1.31,38.28,3.9c12.2,2.52,24.19,6.28,35.66,11.18,11.26,4.81,22.11,10.76,32.27,17.69,10.06,6.86,19.52,14.74,28.11,23.43,8.6,8.68,16.4,18.23,23.2,28.39,6.86,10.26,12.75,21.22,17.51,32.59,4.85,11.58,8.57,23.7,11.07,36.02,2.56,12.64,3.86,25.65,3.86,38.67s-1.3,26.03-3.86,38.66c-2.5,12.32-6.22,24.43-11.07,36.01-4.76,11.37-10.65,22.33-17.51,32.59-6.8,10.16-14.6,19.71-23.2,28.39-8.6,8.68-18.06,16.56-28.11,23.42-10.16,6.93-21.01,12.88-32.27,17.69-11.46,4.9-23.46,8.66-35.66,11.18-12.51,2.59-25.39,3.9-38.28,3.9Z"></path><circle class="cls-4" cx="200.55" cy="209.33" r="149.91"></circle><text class="cls-3" transform="translate(163.92 257.19)"><tspan x="0" y="0">EURO</tspan></text><text class="cls-1" transform="translate(44.87 301.26)"><tspan x="0" y="0">1</tspan></text><path class="cls-5" d="M198.96,402.09c-12.89,0-25.77-1.31-38.28-3.9-12.2-2.52-24.19-6.28-35.65-11.18-11.25-4.81-22.11-10.76-32.26-17.69-10.06-6.86-19.51-14.74-28.11-23.42-8.59-8.68-16.4-18.23-23.19-28.39-6.86-10.26-12.75-21.22-17.51-32.59-4.85-11.58-8.57-23.69-11.07-36.01-2.56-12.64-3.86-25.65-3.86-38.66s1.3-26.03,3.86-38.67c2.5-12.32,6.22-24.44,11.07-36.02,4.76-11.37,10.65-22.33,17.51-32.59,6.79-10.16,14.6-19.71,23.19-28.39,8.59-8.68,18.05-16.56,28.11-23.43,10.15-6.93,21.01-12.88,32.26-17.69,11.46-4.9,23.46-8.66,35.65-11.18,12.51-2.59,25.39-3.9,38.28-3.9s25.77,1.31,38.28,3.9c12.2,2.52,24.19,6.28,35.66,11.18,11.26,4.81,22.11,10.76,32.27,17.69,10.06,6.86,19.52,14.74,28.11,23.43,8.6,8.68,16.4,18.23,23.2,28.39,6.86,10.26,12.75,21.22,17.51,32.59,4.85,11.58,8.57,23.7,11.07,36.02,2.56,12.64,3.86,25.65,3.86,38.67s-1.3,26.03-3.86,38.66c-2.5,12.32-6.22,24.43-11.07,36.01-4.76,11.37-10.65,22.33-17.51,32.59-6.8,10.16-14.6,19.71-23.2,28.39-8.6,8.68-18.06,16.56-28.11,23.42-10.16,6.93-21.01,12.88-32.27,17.69-11.46,4.9-23.46,8.66-35.66,11.18-12.51,2.59-25.39,3.9-38.28,3.9Z"></path><circle class="cls-4" cx="200.55" cy="209.33" r="149.91"></circle><text class="cls-3" transform="translate(163.92 257.19)"><tspan x="0" y="0">EURO</tspan></text><text class="cls-1" transform="translate(44.87 301.26)"><tspan x="0" y="0">1</tspan></text><path class="cls-5" d="M198.96,402.09c-12.89,0-25.77-1.31-38.28-3.9-12.2-2.52-24.19-6.28-35.65-11.18-11.25-4.81-22.11-10.76-32.26-17.69-10.06-6.86-19.51-14.74-28.11-23.42-8.59-8.68-16.4-18.23-23.19-28.39-6.86-10.26-12.75-21.22-17.51-32.59-4.85-11.58-8.57-23.69-11.07-36.01-2.56-12.64-3.86-25.65-3.86-38.66s1.3-26.03,3.86-38.67c2.5-12.32,6.22-24.44,11.07-36.02,4.76-11.37,10.65-22.33,17.51-32.59,6.79-10.16,14.6-19.71,23.19-28.39,8.59-8.68,18.05-16.56,28.11-23.43,10.15-6.93,21.01-12.88,32.26-17.69,11.46-4.9,23.46-8.66,35.65-11.18,12.51-2.59,25.39-3.9,38.28-3.9s25.77,1.31,38.28,3.9c12.2,2.52,24.19,6.28,35.66,11.18,11.26,4.81,22.11,10.76,32.27,17.69,10.06,6.86,19.52,14.74,28.11,23.43,8.6,8.68,16.4,18.23,23.2,28.39,6.86,10.26,12.75,21.22,17.51,32.59,4.85,11.58,8.57,23.7,11.07,36.02,2.56,12.64,3.86,25.65,3.86,38.67s-1.3,26.03-3.86,38.66c-2.5,12.32-6.22,24.43-11.07,36.01-4.76,11.37-10.65,22.33-17.51,32.59-6.8,10.16-14.6,19.71-23.2,28.39-8.6,8.68-18.06,16.56-28.11,23.42-10.16,6.93-21.01,12.88-32.27,17.69-11.46,4.9-23.46,8.66-35.66,11.18-12.51,2.59-25.39,3.9-38.28,3.9Z"></path><circle class="cls-4" cx="200.55" cy="209.33" r="149.91"></circle><text class="cls-3" transform="translate(163.92 257.19)"><tspan x="0" y="0">EURO</tspan></text><text class="cls-1" transform="translate(44.87 301.26)"><tspan x="0" y="0">1</tspan></text><path class="cls-5" d="M198.96,402.09c-12.89,0-25.77-1.31-38.28-3.9-12.2-2.52-24.19-6.28-35.65-11.18-11.25-4.81-22.11-10.76-32.26-17.69-10.06-6.86-19.51-14.74-28.11-23.42-8.59-8.68-16.4-18.23-23.19-28.39-6.86-10.26-12.75-21.22-17.51-32.59-4.85-11.58-8.57-23.69-11.07-36.01-2.56-12.64-3.86-25.65-3.86-38.66s1.3-26.03,3.86-38.67c2.5-12.32,6.22-24.44,11.07-36.02,4.76-11.37,10.65-22.33,17.51-32.59,6.79-10.16,14.6-19.71,23.19-28.39,8.59-8.68,18.05-16.56,28.11-23.43,10.15-6.93,21.01-12.88,32.26-17.69,11.46-4.9,23.46-8.66,35.65-11.18,12.51-2.59,25.39-3.9,38.28-3.9s25.77,1.31,38.28,3.9c12.2,2.52,24.19,6.28,35.66,11.18,11.26,4.81,22.11,10.76,32.27,17.69,10.06,6.86,19.52,14.74,28.11,23.43,8.6,8.68,16.4,18.23,23.2,28.39,6.86,10.26,12.75,21.22,17.51,32.59,4.85,11.58,8.57,23.7,11.07,36.02,2.56,12.64,3.86,25.65,3.86,38.67s-1.3,26.03-3.86,38.66c-2.5,12.32-6.22,24.43-11.07,36.01-4.76,11.37-10.65,22.33-17.51,32.59-6.8,10.16-14.6,19.71-23.2,28.39-8.6,8.68-18.06,16.56-28.11,23.42-10.16,6.93-21.01,12.88-32.27,17.69-11.46,4.9-23.46,8.66-35.66,11.18-12.51,2.59-25.39,3.9-38.28,3.9Z"></path><circle class="cls-4" cx="200.55" cy="209.33" r="149.91"></circle><g><path class="cls-2" d="M202.65,227.34h-2.74c-.89-2.21-1.73-3.78-2.52-4.71-.79-.93-1.61-1.5-2.46-1.7-.85-.2-2.15-.31-3.9-.31h-4.31l-4.45,14.69h1.95c1.8,0,3.2-.18,4.18-.55.98-.37,1.73-.95,2.26-1.75.52-.8,1.03-1.97,1.51-3.52h2.85l-4.77,15.54h-2.85c.47-1.51.7-2.71.7-3.58,0-1.42-.47-2.31-1.41-2.69-.94-.38-2.07-.57-3.39-.57h-1.92l-3.46,11.2c-.27.83-.41,1.61-.41,2.33,0,.56.16,1.03.49,1.4.33.37.98.66,1.96.89s2.26.33,3.86.33c3.47,0,6.11-.69,7.9-2.07,1.79-1.38,3.37-3.3,4.73-5.76h2.94l-3.29,10.68h-31.72l.84-2.68c1.4,0,2.4-.4,3.01-1.19.61-.8,1.12-1.87,1.53-3.23l7.51-24.68c.35-1.12.52-1.89.52-2.3,0-1.01-.36-1.71-1.08-2.11-.72-.4-1.59-.6-2.62-.6l.79-2.68h27.47l.29,9.6Z"></path><path class="cls-2" d="M250.58,217.74l-.84,2.68c-1.42.12-2.57.43-3.46.93-.89.51-1.62,1.21-2.18,2.11s-1.03,2.02-1.4,3.36l-4.63,16.62c-.48,1.78-1.04,3.44-1.66,4.98-.62,1.53-1.52,3.02-2.69,4.47-1.17,1.45-2.77,2.65-4.79,3.61-2.02.96-4.5,1.44-7.45,1.44-2.64,0-5-.4-7.1-1.19s-3.74-1.92-4.93-3.36c-1.19-1.45-1.79-3.07-1.79-4.87,0-.87.1-1.78.29-2.72.19-.94.48-2.02.84-3.24l5.12-16.79c.41-1.34.61-2.21.61-2.62,0-1.11-.41-1.82-1.22-2.14-.81-.32-1.77-.51-2.85-.57l.84-2.68h17.9l-.84,2.68c-1.38,0-2.42.1-3.13.29-.71.19-1.28.59-1.72,1.18-.44.59-.87,1.56-1.29,2.9l-6.08,20.02c-.56,1.96-.84,3.43-.84,4.42,0,1.73.7,3.11,2.11,4.15,1.41,1.04,3.13,1.56,5.16,1.56s3.87-.4,5.32-1.19c1.46-.8,2.63-1.8,3.54-3.01s1.6-2.44,2.1-3.68.9-2.44,1.21-3.61l4.95-17.34c.27-.95.41-1.67.41-2.15,0-1.44-.5-2.37-1.51-2.79-1.01-.43-2.17-.67-3.49-.73l.84-2.68h14.67Z"></path><path class="cls-2" d="M286.4,227.69c0,1.01-.19,2.1-.58,3.27-.39,1.17-1.07,2.31-2.04,3.4-.97,1.1-2.34,2.04-4.12,2.82-1.77.79-4,1.28-6.68,1.47.97.76,1.75,1.63,2.34,2.6.59.98,1.24,2.61,1.94,4.9.52,1.69,1.02,3.05,1.5,4.07.48,1.03,1.18,1.93,2.12,2.71.94.78,2.24,1.3,3.88,1.57l-.82,2.68h-10.16c-.52-.72-1.03-1.61-1.51-2.68-.49-1.07-1.23-3.02-2.24-5.85l-1.19-3.4c-.6-1.78-1.08-3.04-1.43-3.75-.35-.72-.92-1.28-1.7-1.69-.79-.41-1.98-.61-3.59-.61h-1.66l-3.06,9.95c-.35,1.11-.52,1.94-.52,2.5,0,1.22.48,2,1.43,2.34.95.34,2.14.51,3.58.51l-.84,2.68h-17.87l.82-2.68c1.09,0,1.93-.13,2.53-.38.6-.25,1.1-.69,1.5-1.32.4-.63.77-1.54,1.12-2.72l7.51-24.68c.35-1.16.52-1.93.52-2.3,0-.95-.35-1.64-1.05-2.07-.7-.43-1.48-.64-2.36-.64h-1.13l.79-2.68h18.71c2.08,0,3.78.11,5.11.32,1.33.21,2.62.65,3.88,1.31,1.53.76,2.79,1.84,3.78,3.24s1.48,3.1,1.48,5.08ZM278.22,226.67c0-2.6-.85-4.26-2.55-4.98-1.7-.72-3.71-1.08-6.04-1.08h-3.52l-4.77,15.71h3.06c4.36,0,7.38-.48,9.05-1.43,1.51-.85,2.69-2.04,3.52-3.56s1.25-3.08,1.25-4.67Z"></path><path class="cls-2" d="M333.3,233.3c0,2.7-.61,5.49-1.82,8.37s-2.95,5.56-5.21,8.03c-2.26,2.47-4.97,4.46-8.12,5.97-3.15,1.5-6.61,2.26-10.37,2.26-4,0-7.26-.8-9.79-2.42-2.53-1.61-4.35-3.64-5.46-6.1-1.11-2.45-1.66-4.94-1.66-7.46,0-3.8,1.08-7.64,3.23-11.52,2.15-3.88,5.19-7.08,9.11-9.6,3.92-2.52,8.4-3.78,13.44-3.78,3.88,0,7.07.79,9.56,2.37,2.49,1.58,4.3,3.61,5.41,6.08s1.67,5.08,1.67,7.81ZM325.24,229.32c0-6.4-2.96-9.6-8.88-9.6-1.55,0-3.06.27-4.51.82-1.45.54-2.83,1.42-4.13,2.63-1.3,1.21-2.47,2.76-3.52,4.64-1.4,2.62-2.63,5.59-3.7,8.92-1.07,3.33-1.6,6.4-1.6,9.21,0,6.19,2.88,9.28,8.64,9.28,3.2,0,5.95-1,8.26-3.01,2.31-2.01,4.24-4.82,5.79-8.42,2.42-5.7,3.64-10.52,3.64-14.46Z"></path></g><path class="cls-2" d="M188.31,104.91l-48.52,158.48c-1.23,3.97-1.84,7.38-1.84,10.22,0,9.08,6.81,13.62,20.43,13.62l-4.4,14.05H61.75l4.26-14.05c8.8,0,14.61-.43,17.45-1.28s5.25-2.67,7.24-5.46c1.99-2.79,4.07-7.78,6.24-14.97l32.92-107.54c1.51-4.92,2.27-8.84,2.27-11.78,0-3.69-1.59-6.41-4.75-8.16-3.17-1.75-9.15-2.62-17.95-2.62h-6.53l3.97-13.19c29.89-.19,53.2-5.96,69.94-17.31h11.49Z"></path><g><rect class="cls-5" x="367.18" y="315.05" width="30.47" height="130.87" transform="translate(-156.46 405.54) rotate(-47.52)"></rect><rect class="cls-5" x="403.17" y="336.87" width="45.61" height="167.03" transform="translate(-171.74 450.61) rotate(-47.52)"></rect></g></g></g></svg> 